<svg data-v-423bf9ae="" xmlns="http://www.w3.org/2000/svg" viewBox="0 0 475 107" class="iconLeftSlogan"><!----><!----><!----><g data-v-423bf9ae="" id="49af2e13-54d5-43cf-b37f-4446baf0529a" fill="black" transform="matrix(4.373177757451571,0,0,4.373177757451571,98.84530507436565,1.836734313882424)"><path d="M0.78 10.50L0.78-0.42L4.37-0.42L4.37-0.42Q5.08-0.42 5.65-0.30L5.65-0.30L5.65-0.30Q6.22-0.18 6.75 0.13L6.75 0.13L6.75 0.13Q7.29 0.43 7.59 1.06L7.59 1.06L7.59 1.06Q7.88 1.68 7.88 2.60L7.88 2.60L7.88 2.88L7.88 2.88Q7.88 4.24 6.82 4.86L6.82 4.86L6.82 4.86Q8.16 5.50 8.16 7.08L8.16 7.08L8.16 7.36L8.16 7.36Q8.16 8.32 7.85 8.97L7.85 8.97L7.85 8.97Q7.53 9.62 6.96 9.93L6.96 9.93L6.96 9.93Q6.40 10.25 5.81 10.37L5.81 10.37L5.81 10.37Q5.22 10.50 4.48 10.50L4.48 10.50L0.78 10.50ZM4.55 5.91L4.55 5.91L3.05 5.91L3.05 8.54L4.55 8.54L4.55 8.54Q5.11 8.54 5.49 8.25L5.49 8.25L5.49 8.25Q5.87 7.97 5.87 7.28L5.87 7.28L5.87 7.15L5.87 7.15Q5.87 5.91 4.55 5.91ZM4.35 1.54L4.35 1.54L3.05 1.54L3.05 3.93L4.35 3.93L4.35 3.93Q5.59 3.93 5.59 2.83L5.59 2.83L5.59 2.65L5.59 2.65Q5.59 1.54 4.35 1.54ZM11.80 10.50L9.59 10.50L9.59 3.08L11.80 3.08L11.80 10.50ZM9.53-0.31L11.86-0.31L11.86 2.03L9.53 2.03L9.53-0.31ZM16.25 9.00L16.25 9.00L16.25 9.00Q17.25 9.00 17.25 8.27L17.25 8.27L17.25 8.27Q17.25 7.92 17.01 7.76L17.01 7.76L17.01 7.76Q16.77 7.59 16.14 7.53L16.14 7.53L16.14 7.53Q14.53 7.41 13.83 6.94L13.83 6.94L13.83 6.94Q13.13 6.47 13.13 5.45L13.13 5.45L13.13 5.32L13.13 5.32Q13.13 4.10 13.99 3.50L13.99 3.50L13.99 3.50Q14.84 2.90 16.25 2.90L16.25 2.90L16.25 2.90Q19.38 2.90 19.38 5.45L19.38 5.45L19.38 5.52L17.21 5.52L17.21 5.52Q17.21 4.58 16.25 4.58L16.25 4.58L16.25 4.58Q15.81 4.58 15.56 4.76L15.56 4.76L15.56 4.76Q15.32 4.94 15.32 5.25L15.32 5.25L15.32 5.25Q15.32 5.60 15.54 5.75L15.54 5.75L15.54 5.75Q15.76 5.91 16.38 5.96L16.38 5.96L16.38 5.96Q17.95 6.09 18.71 6.53L18.71 6.53L18.71 6.53Q19.47 6.97 19.47 8.06L19.47 8.06L19.47 8.19L19.47 8.19Q19.47 9.37 18.66 10.02L18.66 10.02L18.66 10.02Q17.84 10.68 16.25 10.68L16.25 10.68L16.25 10.68Q14.67 10.68 13.86 10.01L13.86 10.01L13.86 10.01Q13.05 9.34 13.05 8.22L13.05 8.22L13.05 8.15L15.25 8.15L15.25 8.15Q15.25 9.00 16.25 9.00ZM27.29 13.30L25.07 13.30L25.07 9.87L25.07 9.87Q24.37 10.68 23.17 10.68L23.17 10.68L23.17 10.68Q20.41 10.68 20.41 7.04L20.41 7.04L20.41 6.54L20.41 6.54Q20.41 2.90 23.17 2.90L23.17 2.90L23.17 2.90Q24.56 2.90 25.27 3.98L25.27 3.98L25.42 3.08L27.41 3.08L27.29 5.18L27.29 13.30ZM25.07 8.08L25.07 8.08L25.07 5.50L25.07 5.50Q24.60 4.80 23.81 4.80L23.81 4.80L23.81 4.80Q22.61 4.80 22.61 6.54L22.61 6.54L22.61 7.04L22.61 7.04Q22.61 8.78 23.81 8.78L23.81 8.78L23.81 8.78Q24.60 8.78 25.07 8.08ZM28.76 8.11L28.76 3.08L30.95 3.08L30.95 7.74L30.95 7.74Q30.95 8.78 31.93 8.78L31.93 8.78L31.93 8.78Q32.76 8.78 33.24 8.08L33.24 8.08L33.24 3.08L35.45 3.08L35.45 8.40L35.57 10.50L33.60 10.50L33.43 9.56L33.43 9.56Q32.62 10.68 31.05 10.68L31.05 10.68L31.05 10.68Q29.86 10.68 29.31 9.95L29.31 9.95L29.31 9.95Q28.76 9.23 28.76 8.11L28.76 8.11ZM43.57 6.59L43.57 7.59L38.84 7.59L38.84 7.59Q38.89 8.34 39.24 8.67L39.24 8.67L39.24 8.67Q39.59 9.00 40.24 9.00L40.24 9.00L40.24 9.00Q40.80 9.00 41.14 8.74L41.14 8.74L41.14 8.74Q41.48 8.47 41.48 8.12L41.48 8.12L43.57 8.12L43.57 8.18L43.57 8.18Q43.57 9.27 42.68 9.97L42.68 9.97L42.68 9.97Q41.79 10.68 40.22 10.68L40.22 10.68L40.22 10.68Q38.44 10.68 37.53 9.67L37.53 9.67L37.53 9.67Q36.62 8.67 36.62 6.99L36.62 6.99L36.62 6.59L36.62 6.59Q36.62 4.93 37.53 3.91L37.53 3.91L37.53 3.91Q38.44 2.90 40.14 2.90L40.14 2.90L40.14 2.90Q41.83 2.90 42.70 3.91L42.70 3.91L42.70 3.91Q43.57 4.91 43.57 6.59L43.57 6.59ZM41.34 5.99L41.34 5.99Q41.24 4.58 40.10 4.58L40.10 4.58L40.10 4.58Q38.95 4.58 38.85 5.99L38.85 5.99L41.34 5.99ZM46.62 6.54L46.62 7.04L46.62 7.04Q46.62 8.78 47.81 8.78L47.81 8.78L47.81 8.78Q48.33 8.78 48.60 8.50L48.60 8.50L48.60 8.50Q48.87 8.22 48.87 7.76L48.87 7.76L50.96 7.76L50.96 8.06L50.96 8.06Q50.96 9.25 50.14 9.97L50.14 9.97L50.14 9.97Q49.32 10.68 47.77 10.68L47.77 10.68L47.77 10.68Q46.07 10.68 45.24 9.70L45.24 9.70L45.24 9.70Q44.41 8.72 44.41 7.04L44.41 7.04L44.41 6.54L44.41 6.54Q44.41 4.86 45.24 3.88L45.24 3.88L45.24 3.88Q46.07 2.90 47.77 2.90L47.77 2.90L47.77 2.90Q49.32 2.90 50.14 3.64L50.14 3.64L50.14 3.64Q50.96 4.38 50.96 5.64L50.96 5.64L50.96 5.96L48.87 5.96L48.87 5.96Q48.87 4.80 47.81 4.80L47.81 4.80L47.81 4.80Q46.62 4.80 46.62 6.54L46.62 6.54ZM56.10 2.90L56.10 2.90L56.10 2.90Q56.25 2.90 56.31 2.91L56.31 2.91L56.31 5.04L55.93 5.04L55.93 5.04Q54.78 5.04 54.33 5.68L54.33 5.68L54.33 10.50L52.12 10.50L52.12 5.18L52.00 3.08L53.97 3.08L54.12 3.95L54.12 3.95Q54.87 2.90 56.10 2.90ZM59.23 3.08L60.63 7.81L62.03 3.08L64.44 3.08L61.82 10.11L60.87 13.30L58.24 13.30L59.43 10.11L56.83 3.08L59.23 3.08ZM69.33 10.68L69.33 10.68L69.33 10.68Q68.12 10.68 67.42 9.87L67.42 9.87L67.42 13.30L65.21 13.30L65.21 5.18L65.09 3.08L67.06 3.08L67.21 3.99L67.21 3.99Q67.94 2.90 69.33 2.90L69.33 2.90L69.33 2.90Q72.09 2.90 72.09 6.54L72.09 6.54L72.09 7.04L72.09 7.04Q72.09 10.68 69.33 10.68ZM68.68 4.80L68.68 4.80L68.68 4.80Q67.90 4.80 67.42 5.50L67.42 5.50L67.42 8.08L67.42 8.08Q67.90 8.78 68.68 8.78L68.68 8.78L68.68 8.78Q69.87 8.78 69.87 7.04L69.87 7.04L69.87 6.54L69.87 6.54Q69.87 4.80 68.68 4.80ZM76.12 0.98L76.12 3.08L78.02 3.08L78.02 5.01L76.12 5.01L76.12 7.69L76.12 7.69Q76.12 8.33 76.38 8.55L76.38 8.55L76.38 8.55Q76.65 8.78 77.21 8.78L77.21 8.78L77.21 8.78Q77.69 8.78 77.88 8.68L77.88 8.68L77.88 10.50L77.88 10.50Q77.56 10.68 76.69 10.68L76.69 10.68L76.69 10.68Q73.91 10.68 73.91 7.92L73.91 7.92L73.91 5.01L72.77 5.01L72.77 3.08L73.91 3.08L73.91 0.98L76.12 0.98ZM82.43 10.68L82.43 10.68L82.43 10.68Q80.71 10.68 79.84 9.70L79.84 9.70L79.84 9.70Q78.96 8.72 78.96 7.04L78.96 7.04L78.96 6.54L78.96 6.54Q78.96 4.86 79.84 3.88L79.84 3.88L79.84 3.88Q80.71 2.90 82.43 2.90L82.43 2.90L82.43 2.90Q84.17 2.90 85.04 3.88L85.04 3.88L85.04 3.88Q85.90 4.86 85.90 6.54L85.90 6.54L85.90 7.04L85.90 7.04Q85.90 8.72 85.04 9.70L85.04 9.70L85.04 9.70Q84.17 10.68 82.43 10.68ZM81.17 7.04L81.17 7.04Q81.17 8.78 82.43 8.78L82.43 8.78L82.43 8.78Q83.69 8.78 83.69 7.04L83.69 7.04L83.69 6.54L83.69 6.54Q83.69 4.80 82.43 4.80L82.43 4.80L82.43 4.80Q81.17 4.80 81.17 6.54L81.17 6.54L81.17 7.04Z"></path></g><!----><g data-v-423bf9ae="" id="7c7a8250-c16d-4824-ad36-b3f7f43ea3c6" transform="matrix(1.0868111504448785,0,0,1.0868111504448785,-13.255261890115804,-0.23894260335429607)" stroke="none" fill="black"><g clip-rule="evenodd"><path d="M12.983 10.59l17.018 88.223-5.872-59.049 29.021-1.892-.054-9.883L64.549 1 53.622 18.977z"></path><path d="M59.389 54.548l5.16-53.541-8.74 39.716-19.612 1.045 1.57 20.462-7.766 36.583 12.057-39.899z"></path><path d="M62.8 67.182l.549-10.453-15.979 3.755-.032 11.797-17.337 26.532 21.68-27.616zM65.711 62.394l14.841-4.731 1.509-12.532-15.899 2.095zM72.07 44.502l10.988-1.417 1.581-10.278-8.079-.373L64.549 1l8.43 30.967z"></path><path d="M87.413 31.294l1.256-9.506-9.544-2.694L64.549 1l14.483 22.437-.422 7z"></path></g></g><!----><g data-v-423bf9ae="" id="8a4dfd70-a266-428f-a8a0-a8d5ca141b1b" fill="black" transform="matrix(Infinity,0,0,Infinity,0,0)"><path d=""></path></g></svg>